<?xml version='1.0' encoding='utf-8'?><!-- Generator: DarwingMaster 1.1.6, SVG Export Plug-In . SVG Version: 6.00 Build 0)--><svg version="1.1" x="0" y="0" viewBox="0 0 744 1052" xmlns="http://www.w3.org/2000/svg" xmlns:xlink="http://www.w3.org/1999/xlink">
  <style type="text/css">.st2{stroke:#4795fc;stroke-opacity:1;stroke-width:5;stroke-linecap:butt;stroke-linejoin:miter;fill:none;}
.st3{stroke:#4795fc;stroke-opacity:1;stroke-width:5;stroke-linecap:butt;stroke-linejoin:miter;fill:none;}</style>
  <defs/>
  <path class="st2" id="矩形1" d="M 45 280 C 45 280 86 280 86 280 C 86 280 86 349 86 349 C 86 349 45 349 45 349 C 45 349 45 280 45 280  Z "/>
  <path class="st3" id="矩形3" d="M 86 350 C 86 350 128 350 128 350 C 128 350 128 427 128 427 C 128 427 86 427 86 427 C 86 427 86 350 86 350  Z "/>
  <text transform="matrix(1 0 0 1 46.55000000000007 303.6)" opacity="1" id="文本1" text-anchor="start" dominant-baseline="auto">
    <tspan x="2" y="15.95" font-family="思源黑体" font-size="12" fill="#000000" font-style="normal" font-weight="normal">复</tspan>
    <tspan x="14" y="15.95" font-family="思源黑体" font-size="12" fill="#000000" font-style="normal" font-weight="normal">临</tspan>
    <tspan x="26" y="15.95" font-family="思源黑体" font-size="12" fill="#000000" font-style="normal" font-weight="normal">舍</tspan>
  </text>
</svg>
